<svg width="221" height="233" viewBox="0 0 221 233" fill="none" xmlns="http://www.w3.org/2000/svg">
<path fill-rule="evenodd" clip-rule="evenodd" d="M32.1787 46.3091H32.1785V57.473V138.514H32.1841C32.1803 138.859 32.1784 139.203 32.1784 139.548C32.1784 191.043 74.3857 232.787 126.451 232.787C178.516 232.787 220.724 191.043 220.724 139.548C220.724 88.0537 178.516 46.3092 126.451 46.3092C126.175 46.3092 125.9 46.3104 125.624 46.3127V46.3091L82.6226 46.3091H71.0455C71.0455 40.2277 70.0401 34.206 68.0869 28.5875C66.1337 22.969 63.2708 17.8639 59.6617 13.5637C56.0525 9.26348 51.7679 5.85235 47.0524 3.52509C42.3368 1.19783 37.2827 0 32.1787 0L32.1787 46.3091ZM125.831 220.797C170.932 220.797 207.493 184.513 207.493 139.755C207.493 94.9972 170.932 58.7137 125.831 58.7137C80.7308 58.7137 44.1696 94.9972 44.1696 139.755C44.1696 184.513 80.7308 220.797 125.831 220.797ZM55.1029 25.76C55.8797 24.9748 55.8729 23.7085 55.0876 22.9317L54.2422 22.0954C54.1618 22.0158 54.0763 21.9444 53.9867 21.8813L43.9511 11.8244C43.1709 11.0425 41.9046 11.0412 41.1227 11.8214L40.281 12.6614C39.4991 13.4416 39.4977 14.7079 40.278 15.4898L49.1592 24.3898L40.4388 33.2051C39.662 33.9904 39.6689 35.2567 40.4541 36.0335L41.2995 36.8698C42.0848 37.6466 43.3511 37.6397 44.1279 36.8545L55.1029 25.76ZM0.593459 25.7528C-0.191804 24.9759 -0.198656 23.7096 0.578156 22.9244L11.5532 11.8299C12.33 11.0447 13.5963 11.0378 14.3816 11.8146L15.2269 12.6509C16.0122 13.4277 16.019 14.694 15.2422 15.4793L6.52184 24.2946L15.4031 33.1946C16.1833 33.9765 16.182 35.2428 15.4001 36.023L14.5584 36.863C13.7765 37.6432 12.5102 37.6418 11.7299 36.86L1.69435 26.8032C1.60482 26.74 1.5193 26.6686 1.43883 26.589L0.593459 25.7528ZM198.324 142.974C196.626 181.215 164.819 211.7 125.831 211.7C85.7539 211.7 53.2653 179.489 53.2653 139.755C53.2653 100.021 85.7539 67.8102 125.831 67.8102C158.659 67.8102 186.396 89.4239 195.355 119.082H163.331C156.075 105.768 142.093 96.7533 126.037 96.7533C102.516 96.7533 83.4489 116.098 83.4489 139.962C83.4489 163.825 102.516 183.17 126.037 183.17C142.436 183.17 156.671 173.766 163.787 159.983C164.455 160.142 165.368 160.223 166.558 160.223C179.522 160.057 193.155 153.877 198.324 142.974ZM164.904 124.871H190.127V124.872H198.165C198.181 125.191 198.19 125.534 198.19 125.901C198.19 139.538 185.216 153.829 168.635 154.147L168.636 154.152L162.645 154.231C162.434 154.24 162.223 154.244 162.011 154.244C153.79 154.244 147.125 147.673 147.125 139.566C147.125 131.459 153.79 124.888 162.01 124.888V124.871L164.904 124.871Z" fill="#55A3F0"/>
</svg>
